<svg xmlns="http://www.w3.org/2000/svg" version="1.1" xmlns:xlink="http://www.w3.org/1999/xlink" xmlns:svgjs="http://svgjs.dev/svgjs" width="2000" height="272" viewBox="0 0 2000 272"><g transform="matrix(1,0,0,1,-1.2121212121212466,-0.03270559476683843)"><svg viewBox="0 0 396 54" data-background-color="#000000" preserveAspectRatio="xMidYMid meet" height="272" width="2000" xmlns="http://www.w3.org/2000/svg" xmlns:xlink="http://www.w3.org/1999/xlink"><g id="tight-bounds" transform="matrix(1,0,0,1,0.2400000000000091,0.006493022490474232)"><svg viewBox="0 0 395.52 53.98701395501908" height="53.98701395501908" width="395.52"><g><svg viewBox="0 0 460.72451130742195 62.887188059701494" height="53.98701395501908" width="395.52"><g transform="matrix(1,0,0,1,65.20451130742198,8.6913552238806)"><svg viewBox="0 0 395.52 45.504477611940295" height="45.504477611940295" width="395.52"><g id="textblocktransform"><svg viewBox="0 0 395.52 45.504477611940295" height="45.504477611940295" width="395.52" id="textblock"><g><svg viewBox="0 0 395.52 45.504477611940295" height="45.504477611940295" width="395.52"><g transform="matrix(1,0,0,1,0,0)"><svg width="395.52" viewBox="1.95 -36 401.96000000000004 46.25" height="45.504477611940295" data-palette-color="#ffffff"><path d="M12.65 0.5L12.65 0.5Q7.95 0.5 5.15-1.68 2.35-3.85 1.95-7.85L1.95-7.85 5.8-7.85Q6.15-5.4 7.95-4.1 9.75-2.8 12.75-2.8L12.75-2.8Q15.4-2.8 16.9-3.8 18.4-4.8 18.4-6.65L18.4-6.65Q18.4-7.95 17.55-8.93 16.7-9.9 14.15-10.55L14.15-10.55 10.05-11.6Q6.55-12.5 4.8-14.38 3.05-16.25 3.05-18.85L3.05-18.85Q3.05-22.15 5.5-24.08 7.95-26 12.15-26L12.15-26Q16.3-26 18.9-24 21.5-22 21.85-18.45L21.85-18.45 18-18.45Q17.65-20.5 16.1-21.6 14.55-22.7 12-22.7L12-22.7Q9.55-22.7 8.2-21.78 6.85-20.85 6.85-19.15L6.85-19.15Q6.85-17.85 7.83-16.9 8.8-15.95 11.1-15.3L11.1-15.3 15.1-14.2Q18.65-13.25 20.45-11.3 22.25-9.35 22.25-6.6L22.25-6.6Q22.25-3.25 19.7-1.38 17.15 0.5 12.65 0.5ZM47.15 0L43.3 0Q43.1-0.85 43.02-1.95 42.95-3.05 42.95-4.75L42.95-4.75 42.7-4.75 42.7-16.95Q42.7-19.85 41.37-21.23 40.05-22.6 37.1-22.6L37.1-22.6Q34.2-22.6 32.47-21.43 30.75-20.25 30.55-18.1L30.55-18.1 26.7-18.1Q26.95-21.8 29.8-23.9 32.65-26 37.25-26L37.25-26Q42-26 44.3-23.75 46.6-21.5 46.6-17L46.6-17 46.6-4.75Q46.6-3.65 46.75-2.48 46.9-1.3 47.15 0L47.15 0ZM34.55 0.5L34.55 0.5Q30.6 0.5 28.27-1.43 25.95-3.35 25.95-6.7L25.95-6.7Q25.95-10.05 28.25-11.9 30.55-13.75 34.95-14.5L34.95-14.5 43.85-16 43.85-12.7 35.55-11.4Q32.75-10.95 31.3-9.9 29.85-8.85 29.85-6.85L29.85-6.85Q29.85-4.9 31.17-3.9 32.5-2.9 35.1-2.9L35.1-2.9Q38.45-2.9 40.57-4.42 42.7-5.95 42.7-8.4L42.7-8.4 43.35-4.85Q42.55-2.3 40.22-0.9 37.9 0.5 34.55 0.5ZM64.4 0.5L64.4 0.5Q60.9 0.5 58.17-1.23 55.45-2.95 53.87-5.98 52.3-9 52.3-12.85L52.3-12.85Q52.3-16.7 53.87-19.65 55.45-22.6 58.17-24.3 60.9-26 64.34-26L64.34-26Q67.2-26 69.47-24.9 71.75-23.8 73.22-21.78 74.7-19.75 75.09-17.05L75.09-17.05 71.4-17.05Q70.9-19.5 69.09-21.05 67.3-22.6 64.45-22.6L64.45-22.6Q62-22.6 60.2-21.4 58.4-20.2 57.4-18 56.4-15.8 56.4-12.85L56.4-12.85Q56.4-9.9 57.4-7.65 58.4-5.4 60.22-4.15 62.05-2.9 64.5-2.9L64.5-2.9Q67.25-2.9 69.09-4.42 70.95-5.95 71.45-8.4L71.45-8.4 75.15-8.4Q74.7-5.75 73.17-3.73 71.65-1.7 69.4-0.6 67.15 0.5 64.4 0.5ZM84.94 0L80.94 0 80.94-25.5 84.69-25.5 84.69-19 84.94-19 84.94 0ZM84.94-13.3L84.94-13.3 84.29-19.35Q85.19-22.6 87.49-24.3 89.79-26 92.79-26L92.79-26Q94.04-26 94.49-25.8L94.49-25.8 94.49-21.95Q94.24-22.05 93.79-22.08 93.34-22.1 92.69-22.1L92.69-22.1Q88.89-22.1 86.92-19.83 84.94-17.55 84.94-13.3ZM110.14 0.5L110.14 0.5Q106.49 0.5 103.69-1.23 100.89-2.95 99.29-5.95 97.69-8.95 97.69-12.85L97.69-12.85Q97.69-16.75 99.27-19.73 100.84-22.7 103.69-24.35 106.54-26 110.24-26L110.24-26Q113.79-26 116.42-24.45 119.04-22.9 120.47-20.1 121.89-17.3 121.89-13.5L121.89-13.5Q121.89-13 121.87-12.55 121.84-12.1 121.74-11.55L121.74-11.55 100.69-11.55 100.69-14.9 119.29-14.9 117.99-13.05Q117.99-17.65 115.97-20.13 113.94-22.6 110.24-22.6L110.24-22.6Q106.44-22.6 104.12-19.98 101.79-17.35 101.79-12.9L101.79-12.9Q101.79-8.35 104.12-5.63 106.44-2.9 110.34-2.9L110.34-2.9Q112.79-2.9 114.64-3.98 116.49-5.05 117.34-7.05L117.34-7.05 121.14-7.05Q119.89-3.55 116.97-1.53 114.04 0.5 110.14 0.5ZM150.19 0L146.44 0 146.44-5.95 146.94-5.8Q145.99-2.9 143.46-1.2 140.94 0.5 137.44 0.5L137.44 0.5Q133.99 0.5 131.41-1.15 128.84-2.8 127.41-5.75 125.99-8.7 125.99-12.65L125.99-12.65Q125.99-16.65 127.44-19.65 128.89-22.65 131.49-24.3 134.09-25.95 137.59-25.95L137.59-25.95Q141.19-25.95 143.64-24.2 146.09-22.45 146.99-19.25L146.99-19.25 146.19-19.15 146.19-36 150.19-36 150.19 0ZM138.19-3L138.19-3Q142.04-3 144.21-5.63 146.39-8.25 146.39-12.8L146.39-12.8Q146.39-17.25 144.19-19.85 141.99-22.45 138.19-22.45L138.19-22.45Q134.39-22.45 132.24-19.85 130.09-17.25 130.09-12.65L130.09-12.65Q130.09-8.15 132.24-5.58 134.39-3 138.19-3ZM176.83 0.5L176.83 0.5Q172.13 0.5 169.33-1.68 166.53-3.85 166.13-7.85L166.13-7.85 169.98-7.85Q170.33-5.4 172.13-4.1 173.93-2.8 176.93-2.8L176.93-2.8Q179.58-2.8 181.08-3.8 182.58-4.8 182.58-6.65L182.58-6.65Q182.58-7.95 181.73-8.93 180.88-9.9 178.33-10.55L178.33-10.55 174.23-11.6Q170.73-12.5 168.98-14.38 167.23-16.25 167.23-18.85L167.23-18.85Q167.23-22.15 169.68-24.08 172.13-26 176.33-26L176.33-26Q180.48-26 183.08-24 185.68-22 186.03-18.45L186.03-18.45 182.18-18.45Q181.83-20.5 180.28-21.6 178.73-22.7 176.18-22.7L176.18-22.7Q173.73-22.7 172.38-21.78 171.03-20.85 171.03-19.15L171.03-19.15Q171.03-17.85 172.01-16.9 172.98-15.95 175.28-15.3L175.28-15.3 179.28-14.2Q182.83-13.25 184.63-11.3 186.43-9.35 186.43-6.6L186.43-6.6Q186.43-3.25 183.88-1.38 181.33 0.5 176.83 0.5ZM204.43 0.45L204.43 0.45Q200.83 0.45 198.38-1.3 195.93-3.05 195.03-6.25L195.03-6.25 195.83-6.35 195.83 10.25 191.83 10.25 191.83-25.5 195.58-25.5 195.58-19.55 195.03-19.7Q195.98-22.65 198.63-24.33 201.28-26 204.78-26L204.78-26Q208.18-26 210.71-24.35 213.23-22.7 214.63-19.75 216.03-16.8 216.03-12.85L216.03-12.85Q216.03-8.85 214.58-5.85 213.13-2.85 210.53-1.2 207.93 0.45 204.43 0.45ZM203.83-3.05L203.83-3.05Q207.63-3.05 209.78-5.68 211.93-8.3 211.93-12.85L211.93-12.85Q211.93-17.35 209.78-19.93 207.63-22.5 203.83-22.5L203.83-22.5Q200.03-22.5 197.83-19.88 195.63-17.25 195.63-12.7L195.63-12.7Q195.63-8.25 197.83-5.65 200.03-3.05 203.83-3.05ZM226.13 0L222.13 0 222.13-25.5 226.13-25.5 226.13 0ZM226.43-31.3L221.83-31.3 221.83-36 226.43-36 226.43-31.3ZM238.13 0L234.13 0 234.13-25.5 237.88-25.5 237.88-19 238.13-19 238.13 0ZM238.13-13.3L238.13-13.3 237.48-19.35Q238.38-22.6 240.68-24.3 242.98-26 245.98-26L245.98-26Q247.23-26 247.68-25.8L247.68-25.8 247.68-21.95Q247.43-22.05 246.98-22.08 246.53-22.1 245.88-22.1L245.88-22.1Q242.08-22.1 240.1-19.83 238.13-17.55 238.13-13.3ZM256.87 0L252.87 0 252.87-25.5 256.87-25.5 256.87 0ZM257.17-31.3L252.57-31.3 252.57-36 257.17-36 257.17-31.3ZM275.07 0.45L275.07 0.45Q270.82 0.45 268.9-1.48 266.97-3.4 266.97-7.05L266.97-7.05 266.97-31.45 270.97-32.95 270.97-7.1Q270.97-4.95 272.07-3.95 273.17-2.95 275.67-2.95L275.67-2.95Q276.67-2.95 277.4-3.08 278.12-3.2 278.57-3.4L278.57-3.4 278.57 0Q278.07 0.2 277.15 0.33 276.22 0.45 275.07 0.45ZM278.57-22.1L261.72-22.1 261.72-25.5 278.57-25.5 278.57-22.1ZM292.02 0.5L292.02 0.5Q289.52 0.5 287.57-0.53 285.62-1.55 284.52-3.43 283.42-5.3 283.42-7.75L283.42-7.75 283.42-25.5 287.42-25.5 287.42-8.8Q287.42-5.9 288.84-4.45 290.27-3 292.92-3L292.92-3Q295.32-3 297.17-4.1 299.02-5.2 300.09-7.18 301.17-9.15 301.17-11.7L301.17-11.7 301.82-5.65Q300.57-2.8 297.92-1.15 295.27 0.5 292.02 0.5ZM305.17 0L301.42 0 301.42-6 301.17-6 301.17-25.5 305.17-25.5 305.17 0ZM332.67 0L328.82 0Q328.62-0.85 328.54-1.95 328.47-3.05 328.47-4.75L328.47-4.75 328.22-4.75 328.22-16.95Q328.22-19.85 326.89-21.23 325.57-22.6 322.62-22.6L322.62-22.6Q319.72-22.6 317.99-21.43 316.27-20.25 316.07-18.1L316.07-18.1 312.22-18.1Q312.47-21.8 315.32-23.9 318.17-26 322.77-26L322.77-26Q327.52-26 329.82-23.75 332.12-21.5 332.12-17L332.12-17 332.12-4.75Q332.12-3.65 332.27-2.48 332.42-1.3 332.67 0L332.67 0ZM320.07 0.5L320.07 0.5Q316.12 0.5 313.79-1.43 311.47-3.35 311.47-6.7L311.47-6.7Q311.47-10.05 313.77-11.9 316.07-13.75 320.47-14.5L320.47-14.5 329.37-16 329.37-12.7 321.07-11.4Q318.27-10.95 316.82-9.9 315.37-8.85 315.37-6.85L315.37-6.85Q315.37-4.9 316.69-3.9 318.02-2.9 320.62-2.9L320.62-2.9Q323.97-2.9 326.09-4.42 328.22-5.95 328.22-8.4L328.22-8.4 328.87-4.85Q328.07-2.3 325.74-0.9 323.42 0.5 320.07 0.5ZM343.81 0L339.81 0 339.81-36 343.81-36 343.81 0ZM355.81 0L351.81 0 351.81-25.5 355.81-25.5 355.81 0ZM356.11-31.3L351.51-31.3 351.51-36 356.11-36 356.11-31.3ZM374.01 0.45L374.01 0.45Q369.76 0.45 367.83-1.48 365.91-3.4 365.91-7.05L365.91-7.05 365.91-31.45 369.91-32.95 369.91-7.1Q369.91-4.95 371.01-3.95 372.11-2.95 374.61-2.95L374.61-2.95Q375.61-2.95 376.33-3.08 377.06-3.2 377.51-3.4L377.51-3.4 377.51 0Q377.01 0.2 376.08 0.33 375.16 0.45 374.01 0.45ZM377.51-22.1L360.66-22.1 360.66-25.5 377.51-25.5 377.51-22.1ZM389.11 10.25L384.86 10.25 390.56-3 391.46-4.4 399.81-25.5 403.91-25.5 389.11 10.25ZM393.81-2.45L391.01 0.25 379.56-25.5 383.96-25.5 393.81-2.45Z" opacity="1" transform="matrix(1,0,0,1,0,0)" fill="#ffffff" class="wordmark-text-0" data-fill-palette-color="primary" id="text-0"></path></svg></g></svg></g></svg></g></svg></g><g><svg viewBox="0 0 54.46199625070556 62.887188059701494" height="62.887188059701494" width="54.46199625070556"><g><svg xmlns="http://www.w3.org/2000/svg" xmlns:xlink="http://www.w3.org/1999/xlink" version="1.1" x="0" y="0" viewBox="7.814 1.549 82.30199999999999 95.03399999999999" enable-background="new 0 0 100 100" xml:space="preserve" height="62.887188059701494" width="54.46199625070556" class="icon-icon-0" data-fill-palette-color="accent" id="icon-0"><path d="M48.965 1.549L7.814 25.308V72.825L48.965 96.583 90.116 72.825V25.308zM61.022 29.383L86.741 26.563 50.604 47.426zM49.565 46.825V5.1L59.981 28.783zM48.365 46.126L38.107 28.422 48.365 5.1zM37.21 29.417L37.297 29.419 47.932 47.776 11.188 26.562zM46.724 48.465H25.891L10.588 27.603zM25.891 49.667H46.724L10.588 70.529zM47.324 50.708L36.908 68.748 11.188 71.57zM48.365 51.308V93.033L37.948 69.349zM49.565 50.594L60.19 68.933A0.6 0.6 0 0 0 60.104 69.071L49.565 93.032zM61.502 68.801L51.225 51.063 86.742 71.569zM51.206 49.667H72.039L87.343 70.529zM72.039 48.465H51.205L87.343 27.602zM61.027 28.175L50.253 3.681 87.627 25.258zM36.903 28.175L10.302 25.258 47.677 3.681zM9.015 27.488L24.842 49.066 9.015 70.645zM36.903 69.957L47.676 94.451 10.302 72.874zM61.027 69.957L87.627 72.874 50.252 94.451zM73.088 49.066L88.916 27.488V70.644z" fill="#ffffff" data-fill-palette-color="accent"></path></svg></g></svg></g></svg></g><defs></defs></svg><rect width="395.52" height="53.98701395501908" fill="none" stroke="none" visibility="hidden"></rect></g></svg></g></svg>